# xmcd
#
# Track frame offsets:
#	150
#	13947
#	28110
#	41652
#	55457
#	68697
#	82415
#	95460
#	109550
#	122152
#	136555
#	151265
#	165825
#	180045
#	194195
#	208962
#	224625
#	238340
#	252517
#	267167
#	282442
#	297692
#	311352
#	325627
#
# Disc length: 4543 seconds
#
# Revision: 1
# Processed by: cddbd v1.5.2PL0 Copyright (c) Steve Scherf et al.
# Submitted via: EasyCDDAExtractor 15.2.5.1
#
DISCID=6d11bd18
DTITLE=Leroy Carr - Complete Recorded Works, Volume 1
DYEAR=1992
DGENRE=Blues
TTITLE0=My Own Lonesome Blues
TTITLE1=How Long Blues
TTITLE2=Broken Spoke Blues
TTITLE3=Tennessee Blues
TTITLE4=Truthful Blues
TTITLE5=Mean Old Train Blues
TTITLE6=You Got to Reap What You Sow
TTITLE7=Low Down Dirty Blues
TTITLE8=How Long Blues 2
TTITLE9=How Long Blues 3
TTITLE10=Baby Don't You Love Me No More
TTITLE11=Tired of Your Low Down Ways
TTITLE12=I'm Going Away and Leave My Baby
TTITLE13=Prison Bound Blues
TTITLE14=You Don't Mean Me No Good
TTITLE15=How About Me
TTITLE16=Straight Alky Blues Part 1
TTITLE17=Think of Me Thinking of You
TTITLE18=The Truth About the Thing
TTITLE19=Straight Alky Blues Part 1
TTITLE20=Straight Alky Blues Part 2
TTITLE21=Lifeboat Blues
TTITLE22=Gambler's Blues
TTITLE23=There Ain't Nobody Got it Like She's Got It
EXTD=
EXTT0=
EXTT1=
EXTT2=
EXTT3=
EXTT4=
EXTT5=
EXTT6=
EXTT7=
EXTT8=
EXTT9=
EXTT10=
EXTT11=
EXTT12=
EXTT13=
EXTT14=
EXTT15=
EXTT16=
EXTT17=
EXTT18=
EXTT19=
EXTT20=
EXTT21=
EXTT22=
EXTT23=
PLAYORDER=
